<?xml version="1.0" standalone="no"?>
<!DOCTYPE svg PUBLIC "-//W3C//DTD SVG 20010904//EN"
 "http://www.w3.org/TR/2001/REC-SVG-20010904/DTD/svg10.dtd">
<svg version="1.0" xmlns="http://www.w3.org/2000/svg"
 width="225.000000pt" height="225.000000pt" viewBox="0 0 225.000000 225.000000"
 preserveAspectRatio="xMidYMid meet">

<g transform="translate(0.000000,225.000000) scale(0.100000,-0.100000)"
fill="#000000" stroke="none">
<path d="M0 1125 l0 -1125 1125 0 1125 0 0 1125 0 1125 -1125 0 -1125 0 0
-1125z m899 420 c39 -19 71 -39 71 -44 0 -12 -216 -122 -224 -114 -3 3 -6 44
-6 90 0 69 3 86 20 103 23 23 28 21 139 -35z m207 -106 c51 -28 96 -54 99 -59
7 -11 -182 -112 -203 -108 -15 3 -17 16 -15 103 2 55 3 103 3 108 0 15 23 6
116 -44z m239 -121 c55 -29 100 -57 100 -63 0 -12 -197 -115 -207 -109 -10 7
-10 224 0 224 4 0 52 -24 107 -52z m-480 -5 c59 -30 94 -53 93 -61 -4 -19
-185 -115 -203 -108 -12 4 -15 26 -15 104 0 95 3 112 22 112 4 0 51 -21 103
-47z m237 -120 c49 -26 94 -53 99 -60 8 -9 -14 -25 -95 -65 -64 -32 -109 -49
-113 -43 -12 15 -4 215 9 215 6 0 51 -21 100 -47z m456 13 c37 -18 78 -43 92
-54 21 -17 23 -22 10 -37 -14 -17 -161 -95 -180 -95 -6 0 -10 42 -10 110 0 68
4 110 10 110 6 0 41 -15 78 -34z m-698 -136 c55 -28 100 -56 100 -63 0 -13
-177 -107 -203 -107 -15 0 -17 14 -17 103 0 91 4 117 17 117 2 0 48 -23 103
-50z m496 -11 c52 -28 94 -53 94 -57 0 -8 -194 -112 -209 -112 -7 0 -11 37
-11 110 0 95 2 110 16 110 9 0 59 -23 110 -51z m-246 -119 c55 -28 100 -54
100 -58 0 -13 -199 -114 -214 -109 -10 4 -12 31 -9 109 1 56 3 104 3 106 0 9
33 -4 120 -48z m-140 -183 c0 -4 -43 -29 -96 -54 l-97 -47 -18 23 c-15 18 -19
40 -19 105 0 46 3 86 6 89 8 8 224 -104 224 -116z"/>
</g>
</svg>
